<svg xmlns="http://www.w3.org/2000/svg" viewBox="0 0 120 80">
  <!-- Horizontal Chat Bubble Background -->
  <path d="
    M10,20 
    C10,10 20,0 30,0 
    H90 
    C100,0 110,10 110,20 
    V50 
    C110,60 100,70 90,70 
    H40 
    L20,80 
    V70 
    H30 
    C20,77.5 10,60 10,50 
    Z"
    fill="#E60177"/>

  <!-- Resized and Centered Symbol from Original Paths -->
  <g transform="scale(0.58) translate(60, 10)">
    <path d="M24.35 50.83l-23 24.09C.87 75.46 0 74.85 0 74V26c0-.89.87-1.5 1.38-1 24.44 25.71 24.1 24.64 22.97 25.83z" fill="#ffffff"/>
    <path d="M69.26 99.93L7.61 84.8A1.26 1.26 0 0 1 7 82.86L32.06 59a1.25 1.25 0 0 1 1.76.09l36.75 38.56c1.18 1.24.35 2.69-1.31 2.28zM70.57 2.35C31 43.9 33.31 42.19 32.06 41L7 17.14a1.26 1.26 0 0 1 .63-1.94L69.26.07c1.66-.41 2.49 1.04 1.31 2.28z" fill="#ffffff"/>
    <path d="M87.29 10.45v79.1c0 1.46-2.33 1.76-3.66.49-44.35-42.18-42.52-39.64-41.12-41L83.63 10c1.37-1.31 3.66-1 3.66.45z" fill="#ffffff"/>
  </g>
</svg>
